<svg id="Layer_1" data-name="Layer 1" xmlns="http://www.w3.org/2000/svg" viewBox="0 0 239.59 38.4"><defs><style>.cls-1{fill:#fff;}</style></defs><title>logo_white</title><path class="cls-1" d="M28,.88C20.24.88,12.18,2.62,4,4.87A4.14,4.14,0,0,0,1.47,6.59,6.55,6.55,0,0,0,.65,9,63.86,63.86,0,0,0,.12,22.59a6.81,6.81,0,0,0,.71,3.2A3.65,3.65,0,0,0,3.4,27.28q2.11.31,4.23.52l-.31,8.7A1.88,1.88,0,0,0,8,38.1a2.25,2.25,0,0,0,1.23.44,2.44,2.44,0,0,0,2.37-1.26,31.39,31.39,0,0,1,6.32-8.9,199.72,199.72,0,0,0,20.48-.75,5.22,5.22,0,0,0,4.67-3.74c1.36-4.23,1.57-9.46,1.71-14.74a6.73,6.73,0,0,0-2-5.23A10.45,10.45,0,0,0,38.8,2.22,52.09,52.09,0,0,0,28,.88ZM38.26,4.19a9.39,9.39,0,0,1,3.31,1.34,4.21,4.21,0,0,1,1.2,3.68c-.14,5.12-.39,10.09-1.54,13.86a3.38,3.38,0,0,1-3,2.56,193.57,193.57,0,0,1-20.71.74,1,1,0,0,0-.76.3,33.92,33.92,0,0,0-6.92,9.68.37.37,0,0,1-.31.17.15.15,0,0,1-.14-.15l.31-9.43a1.05,1.05,0,0,0-.91-1q-2.54-.24-5.06-.62c-.73-.11-1-.31-1.19-.61a5.08,5.08,0,0,1-.37-2.13,62.52,62.52,0,0,1,.49-13.1,5.89,5.89,0,0,1,.54-1.77,2.4,2.4,0,0,1,1.64-.9c8-2.2,15.74-3.84,23.07-3.85A50.34,50.34,0,0,1,38.26,4.19ZM10.78,12.28a3.53,3.53,0,0,0-.14,4.29,2.93,2.93,0,0,0,2,1.24A3.64,3.64,0,0,0,15.14,17a3.56,3.56,0,0,0,.46-4.71A2.86,2.86,0,0,0,13.38,11a3.31,3.31,0,0,0-2.6,1.28Zm11.86-1.07a3.28,3.28,0,0,0-2.51,1.61,3.37,3.37,0,0,0-.48,3.25c1,2.2,4.28,2.18,5.6-.06a3.12,3.12,0,0,0,0-3.06,3,3,0,0,0-2.13-1.7A2.49,2.49,0,0,0,22.63,11.21Zm9.63.21a3.67,3.67,0,0,0-1,.11A3.19,3.19,0,0,0,29,15a3.38,3.38,0,0,0,1.21,2.31,3.46,3.46,0,0,0,2.88.62,3.1,3.1,0,0,0,2.32-2.27A3.2,3.2,0,0,0,35,12.8a3.47,3.47,0,0,0-2.72-1.38ZM13.29,13a.71.71,0,0,1,.64.37,1.65,1.65,0,0,1-.13,2c-.45.39-.73.42-.92.4a.89.89,0,0,1-.57-.41,1.46,1.46,0,0,1,1-2.36Zm9.48.22a1.65,1.65,0,0,1,.67.64,1,1,0,0,1,0,1.07,1.23,1.23,0,0,1-2,.29,1.91,1.91,0,0,1,.32-1.32,1.24,1.24,0,0,1,1-.67ZM33.34,14a1.81,1.81,0,0,1,.1,1.08,1,1,0,0,1-.78.81,1.3,1.3,0,0,1-1.19-.21,1.37,1.37,0,0,1-.46-.92c-.09-.92.24-1.13.76-1.27A1.57,1.57,0,0,1,33.34,14Z" transform="translate(-0.01 -0.24)"/><path class="cls-1" d="M57.61,5a1.17,1.17,0,0,1,.29-.7A.88.88,0,0,1,58.6,4h6.83a1.17,1.17,0,0,1,.71.29A.88.88,0,0,1,66.5,5V15.89H77.92V5a1,1,0,0,1,1-1h6.73a1.42,1.42,0,0,1,.8.23.82.82,0,0,1,.35.74V37.1a.93.93,0,0,1-.3.76,1.16,1.16,0,0,1-.78.25H79a1.09,1.09,0,0,1-.75-.25,1,1,0,0,1-.29-.76V24H66.5V37.1a.93.93,0,0,1-.31.75,1.25,1.25,0,0,1-.84.26H58.6q-1,0-1-.9Zm62.87,32.72a1.43,1.43,0,0,1-.63.32,3.12,3.12,0,0,1-.63.07h-3.47A1.57,1.57,0,0,1,115,38a1.53,1.53,0,0,1-.51-.4,2.38,2.38,0,0,1-.34-.58,4.88,4.88,0,0,1-.23-.67l-.71-2.94a11.14,11.14,0,0,1-1,1.62,8.5,8.5,0,0,1-1.67,1.7A9.27,9.27,0,0,1,108.17,38a8.91,8.91,0,0,1-3.22.54,10.84,10.84,0,0,1-8.4-3.77,12.65,12.65,0,0,1-2.33-4.08,14.76,14.76,0,0,1-.83-5V10.69a2,2,0,0,1,.38-1.32A1.49,1.49,0,0,1,95,8.93h5.31a2.05,2.05,0,0,1,1.36.33,1.74,1.74,0,0,1,.37,1.3v15a4.1,4.1,0,0,0,.45,1.87A5.46,5.46,0,0,0,103.64,29,5.67,5.67,0,0,0,105.31,30a4.86,4.86,0,0,0,1.9.39,4.24,4.24,0,0,0,1.71-.39,6.36,6.36,0,0,0,1.63-1,5.59,5.59,0,0,0,1.23-1.54,3.85,3.85,0,0,0,.48-1.87V10.63a2.17,2.17,0,0,1,.15-.78,1.25,1.25,0,0,1,.45-.6,2.12,2.12,0,0,1,.56-.25,2.42,2.42,0,0,1,.61-.07h5.19a1.84,1.84,0,0,1,1.42.48,1.85,1.85,0,0,1,.44,1.29V36.41a1.69,1.69,0,0,1-.19.8,1.44,1.44,0,0,1-.54.57Zm26.68-3.17q-.62.62-1.37,1.33a13.52,13.52,0,0,1-1.64,1.33,9.3,9.3,0,0,1-1.93,1,6.1,6.1,0,0,1-2.23.4,14,14,0,0,1-5.76-1.17,13.78,13.78,0,0,1-4.53-3.21,14.76,14.76,0,0,1-3-4.79,16.25,16.25,0,0,1-1.07-5.93,16.22,16.22,0,0,1,1.07-5.94,14.8,14.8,0,0,1,3-4.78,13.63,13.63,0,0,1,4.53-3.19A14.11,14.11,0,0,1,140,8.47a6.93,6.93,0,0,1,2.31.37,8.51,8.51,0,0,1,1.91.94,10.41,10.41,0,0,1,1.59,1.3q.72.72,1.37,1.41V2a1.81,1.81,0,0,1,.45-1.24A1.7,1.7,0,0,1,149,.24h5.17a1.78,1.78,0,0,1,.63.13,2.14,2.14,0,0,1,.61.36,1.86,1.86,0,0,1,.45.55A1.48,1.48,0,0,1,156,2V36.34q0,1.77-1.86,1.77h-4.5a1.77,1.77,0,0,1-.71-.12,1.13,1.13,0,0,1-.43-.33,2.32,2.32,0,0,1-.31-.55q-.16-.39-.34-.77l-.67-1.79ZM134,23.54a8.39,8.39,0,0,0,.47,2.84,6.72,6.72,0,0,0,1.35,2.29,6.38,6.38,0,0,0,2.1,1.53,6.46,6.46,0,0,0,2.72.56,7.28,7.28,0,0,0,2.77-.53,7.06,7.06,0,0,0,2.26-1.46,7.28,7.28,0,0,0,2.21-4.91v-.32a7.26,7.26,0,0,0-.55-2.8,7.43,7.43,0,0,0-1.53-2.34,7.24,7.24,0,0,0-2.3-1.6,7,7,0,0,0-2.86-.59,6.25,6.25,0,0,0-2.72.59,6.35,6.35,0,0,0-2.1,1.6,7.24,7.24,0,0,0-1.35,2.34,8.35,8.35,0,0,0-.47,2.8Zm48.72,11q-.62.62-1.37,1.33a13.52,13.52,0,0,1-1.64,1.33,9.3,9.3,0,0,1-1.93,1,6.1,6.1,0,0,1-2.23.4,14,14,0,0,1-5.76-1.17,13.78,13.78,0,0,1-4.53-3.21,14.78,14.78,0,0,1-3-4.79,16.27,16.27,0,0,1-1.07-5.93,16.24,16.24,0,0,1,1.07-5.94,14.8,14.8,0,0,1,3-4.78,13.64,13.64,0,0,1,4.53-3.19,14.1,14.1,0,0,1,5.76-1.16,6.93,6.93,0,0,1,2.31.37,8.51,8.51,0,0,1,1.91.94,10.41,10.41,0,0,1,1.59,1.3q.72.72,1.37,1.41V2a1.81,1.81,0,0,1,.45-1.24,1.7,1.7,0,0,1,1.35-.51h5.17a1.78,1.78,0,0,1,.63.13,2.12,2.12,0,0,1,.61.36,1.86,1.86,0,0,1,.45.55,1.5,1.5,0,0,1,.17.71V36.34q0,1.77-1.86,1.77h-4.5a1.77,1.77,0,0,1-.71-.12,1.13,1.13,0,0,1-.43-.33,2.32,2.32,0,0,1-.31-.55q-.16-.39-.35-.77l-.67-1.79Zm-13.21-11a8.39,8.39,0,0,0,.47,2.84,6.76,6.76,0,0,0,1.35,2.29,6.38,6.38,0,0,0,2.1,1.53,6.45,6.45,0,0,0,2.72.56,7.28,7.28,0,0,0,2.77-.53,7.06,7.06,0,0,0,2.26-1.46,7.29,7.29,0,0,0,2.21-4.91v-.32a7.26,7.26,0,0,0-.55-2.8,7.43,7.43,0,0,0-1.53-2.34,7.24,7.24,0,0,0-2.3-1.6,7,7,0,0,0-2.86-.59,6.24,6.24,0,0,0-2.72.59,6.35,6.35,0,0,0-2.1,1.6,7.24,7.24,0,0,0-1.35,2.34,8.35,8.35,0,0,0-.47,2.8ZM197.61,2A2.05,2.05,0,0,1,198,.77a1.46,1.46,0,0,1,1.26-.51h5.63a1.08,1.08,0,0,1,.48.13,1.7,1.7,0,0,1,.47.36,2,2,0,0,1,.37.55,1.67,1.67,0,0,1,.15.71V36.34a1.69,1.69,0,0,1-.49,1.32,1.82,1.82,0,0,1-1.27.45h-5.33a1.56,1.56,0,0,1-1.26-.45,2,2,0,0,1-.37-1.32Zm38.7,32.61a15.31,15.31,0,0,1-4.55,2.91,13.87,13.87,0,0,1-5.35,1,15.64,15.64,0,0,1-10.87-4.33,15.27,15.27,0,0,1-3.35-4.79,14.43,14.43,0,0,1-1.24-6,15.53,15.53,0,0,1,1.9-7.47,15.05,15.05,0,0,1,2.21-3,14,14,0,0,1,2.91-2.38A14.33,14.33,0,0,1,221.44,9a14.08,14.08,0,0,1,4-.55,13.56,13.56,0,0,1,3.7.51,14.42,14.42,0,0,1,3.37,1.42,14.64,14.64,0,0,1,2.88,2.21,14.9,14.9,0,0,1,2.25,2.81,13.58,13.58,0,0,1,1.46,3.26,12.47,12.47,0,0,1,.52,3.57q0,1.2,0,2a2.21,2.21,0,0,1-.36,1.21,1.72,1.72,0,0,1-1.07.62,10.38,10.38,0,0,1-2.19.17H219.4a5.73,5.73,0,0,0,.93,2.46,5.84,5.84,0,0,0,1.62,1.57,6.5,6.5,0,0,0,2,.84,8.24,8.24,0,0,0,2,.25,8.83,8.83,0,0,0,1.7-.17,12.18,12.18,0,0,0,1.69-.46,9.56,9.56,0,0,0,1.49-.67,5,5,0,0,0,1.09-.79,4.77,4.77,0,0,1,.63-.45,1.12,1.12,0,0,1,.56-.15,1.11,1.11,0,0,1,.61.21,4.8,4.8,0,0,1,.7.6l2.44,2.76a1.56,1.56,0,0,1,.32.54,1.79,1.79,0,0,1,.07.49,1.28,1.28,0,0,1-.25.79,2.89,2.89,0,0,1-.6.59ZM225.26,15.48a4.4,4.4,0,0,0-1.74.36,6.55,6.55,0,0,0-1.57,1,8.19,8.19,0,0,0-1.32,1.36,8.32,8.32,0,0,0-1,1.54h11.74a13.54,13.54,0,0,0-1-1.66,7.08,7.08,0,0,0-1.29-1.33,5.56,5.56,0,0,0-1.65-.9A6.63,6.63,0,0,0,225.26,15.48Z" transform="translate(-0.01 -0.24)"/></svg>